<svg id="Layer_1" data-name="Layer 1" xmlns="http://www.w3.org/2000/svg" viewBox="0 0 2487.25 2421.35"><defs><style>.cls-1{fill:#271934;}</style></defs><title>Blob_6</title><path class="cls-1" d="M2192.28,1076.74C1912.65,558.22,1516.47,827.36,1013,558.86S317.05,933.11,317.05,933.11s-124.2,242.77-125.25,493.53h0v.58q0,7,.08,14c0,1.29.11,2.58.22,3.85l1.17,69.58c2.82,168.74,140.83,303.84,309.59,303,129.06-.63,294.85-27.12,489.31-111.87,482.53-210.32,540.31,204.06,842.65,221.64,262.64,15.27,291.12-268.17,294.07-342.87C2215.09,1571.15,2418.32,1495.89,2192.28,1076.74Z"/></svg>