<svg id="Layer_1" data-name="Layer 1" xmlns="http://www.w3.org/2000/svg" xmlns:xlink="http://www.w3.org/1999/xlink" viewBox="0 0 3609.57 2446.67"><defs><style>.cls-1{fill:#ffd10f;}.cls-2{fill:none;}.cls-3{fill:#010101;opacity:0.02;}.cls-11,.cls-12,.cls-3{isolation:isolate;}.cls-4{clip-path:url(#clip-path);}.cls-5{clip-path:url(#clip-path-2);}.cls-6{clip-path:url(#clip-path-3);}.cls-7{clip-path:url(#clip-path-5);}.cls-8{fill:#59c3b3;}.cls-9{fill:#e6853c;}.cls-10{fill:#9e5097;}.cls-12{font-size:26.51px;fill:#fff;font-family:Roboto-Medium, Roboto;font-weight:500;}.cls-13{letter-spacing:-0.01em;}.cls-14{fill:#271934;}</style><clipPath id="clip-path"><path class="cls-1" d="M2813.09,1941.83c402.78,0,729.29-326.51,729.29-729.29,0-215.21-188.43-197.9-336.68-331.39-129.22-116.35-205-397.91-392.61-397.91-402.78,0-402,520.34-729.3,729.3S2410.31,1941.83,2813.09,1941.83Z"/></clipPath><clipPath id="clip-path-2"><rect class="cls-1" x="908.46" y="105.35" width="1695.22" height="3330.39"/></clipPath><clipPath id="clip-path-3"><rect class="cls-2" x="908.46" y="105.35" width="1695.22" height="3330.39"/></clipPath><clipPath id="clip-path-5"><path class="cls-2" d="M1189.16,2349.15c131.09,0,301.49-481.17,385.27-572.45,78.57-85.6,432.69-94.5,432.69-222,0-58.85-176.74-58.85-334.94-274.21-110.64-150.62-233.6-309.91-430.9-309.91-66.91,0-65,69.73-122.36,96.38-160.39,74.52-337.6,186.67-337.6,380.79C781.32,1711.24,935.14,2349.15,1189.16,2349.15Z"/></clipPath></defs><title>Blob_background</title><g id="Web_1920_1" data-name="Web 1920 1"><path id="Path_81" data-name="Path 81" class="cls-3" d="M923.15,857.75c10-1.58,109.48-281,216.26-300.72s278.52,203.78,407,120.08S1820.63,345,1940.29,323.84,2055,90.29,2179.65,74.06s453.57-28.66,471.09,97.71-26.64,459-84.56,544.59-493.49,566.25-493.49,566.25S1473.5,1264,1467.85,1261,923.15,857.75,923.15,857.75Z"/><path class="cls-1" d="M2813.09,1941.83c402.78,0,729.29-326.51,729.29-729.29,0-215.21-188.43-197.9-336.68-331.39-129.22-116.35-205-397.91-392.61-397.91-402.78,0-402,520.34-729.3,729.3S2410.31,1941.83,2813.09,1941.83Z"/><g class="cls-4"><g id="Group_5" data-name="Group 5"><rect class="cls-1" x="908.46" y="105.35" width="1695.22" height="3330.39"/><g class="cls-5"><g id="Group_4" data-name="Group 4"><path id="Path_33" data-name="Path 33" class="cls-1" d="M1989.16,477.36H3548.27V1947.72H1989.16Z"/></g></g></g></g><g class="cls-6"><g id="Group_7" data-name="Group 7"><g id="Group_6" data-name="Group 6"><path id="Path_36" data-name="Path 36" class="cls-2" d="M2813.09,1941.83c402.78,0,729.29-326.51,729.29-729.29,0-215.21-188.43-197.9-336.68-331.39-129.22-116.35-205-397.91-392.61-397.91-402.78,0-402,520.34-729.3,729.3S2410.31,1941.83,2813.09,1941.83Z"/></g></g></g><g class="cls-6"><g id="Group_11" data-name="Group 11"><g id="Group_10" data-name="Group 10"><path id="Path_41" data-name="Path 41" class="cls-2" d="M1975.62,2143.53c326.71,0,591.56-228.22,591.56-509.74,0-154.24,0-353-130.67-600.18-34.86-65.94-289.6-328.45-222.64-85.34,29.47,107-182.16,154.94-238.25,175.78-354.93,131.85-662.69-149.3-685.74-146.95C996.29,1007,945,1441,945,1702.07,945,1983.59,1648.91,2143.53,1975.62,2143.53Z"/></g></g></g><g id="Group_19" data-name="Group 19"><g id="Group_18" data-name="Group 18"><path id="Path_51" data-name="Path 51" class="cls-2" d="M1855.06,2156.92c326.71,0,1070-314.15,1070-595.67,0-135.3-455.6-178.94-640.11-380.17-130.68-142.53-237.83-243.54-357-142.52-247.22,209.54-411.33,421.44-768,267.23-224.14-96.91,103.59,109.74,103.59,341.39C1263.5,1928.71,1528.36,2156.92,1855.06,2156.92Z"/></g></g><g class="cls-7"><g id="Group_21" data-name="Group 21"><g class="cls-6"><g id="Group_20" data-name="Group 20"><path id="Path_53" data-name="Path 53" class="cls-8" d="M775.43,962.38H2061V2355H775.43Z"/></g></g></g></g><path class="cls-1" d="M852.54,2027.77c402.78,0,729.3-326.52,729.3-729.29,0-215.21-188.43-197.9-336.69-331.39-129.22-116.35-205-397.91-392.61-397.91-402.78,0-729.29,326.52-729.29,729.3S449.76,2027.77,852.54,2027.77Z"/><g id="Group_29" data-name="Group 29"><g id="Group_28" data-name="Group 28"><path id="Path_64" data-name="Path 64" class="cls-2" d="M1684.26,3593.49c380,0,1339.09,609.26,1564.54,355.52,177.3-199.55-335.51-1226.92-335.51-1506.85,0-635.87-550.26-1151.34-1229-1151.34s-1229,515.47-1229,1151.34c0,274.18-399.19,898.26-228.39,1096C452.16,3799,1298.17,3593.49,1684.26,3593.49Z"/></g></g><path id="Path_77" data-name="Path 77" class="cls-9" d="M1705.81,1502.77c109,72.24,843.67,7.12,843.67,7.12l87.64-231.41s3.28-125.51-167-120.64S2295.56,1023,2154.84,980.29,1996,1088.66,1837.3,1163.62,1654,1308,1654,1308,1596.8,1430.53,1705.81,1502.77Z"/><path id="Path_71" data-name="Path 71" class="cls-10" d="M1754.26,1499.45c-311.94-121.94-49.56-373.38,87.69-360.92s239.21,270.78,516.84,249.18,307.41-375.25,456.1-304.11,157.46,876.59,99.3,901.15S2529.44,1640,2250.09,1668.4,1754.26,1499.45,1754.26,1499.45Z"/><g id="Speakers" class="cls-11"><text class="cls-12" transform="translate(1169.45 1570.39)">Spea<tspan class="cls-13" x="59.49" y="0">k</tspan><tspan x="73.07" y="0">ers</tspan></text></g><g id="Group_33" data-name="Group 33"><path id="Path_70" data-name="Path 70" class="cls-14" d="M869.57,1696.83s192.41-642.75,695.91-374.25,899.68-.64,1179.32,517.88-97.7,510.76-97.7,510.76S748.29,2460.84,744.39,2205,869.57,1696.83,869.57,1696.83Z"/></g></g></svg>