<svg id="Layer_1" data-name="Layer 1" xmlns="http://www.w3.org/2000/svg" viewBox="0 0 441.56 429.86"><defs><style>.cls-1{fill:#fff;}</style></defs><title>React_Norway_Icon_White</title><g id="React_Slicer" data-name="React Slicer"><g id="Group_31" data-name="Group 31"><path id="Path_66" data-name="Path 66" class="cls-1" d="M206.11,334.45a25.13,25.13,0,0,1-6.8-8.83,110.9,110.9,0,0,1-29.58,16.92h0c-10.43,3.67-18.71,3.78-23.73.89-10.67-6.16-15.1-29.91-9.05-61.77q1.08-5.64,2.47-11.23A338.19,338.19,0,0,0,185,277q5.85,8.24,11.9,15.87V263.36q-2-.11-4-.24-8.76-12.8-16.53-26.23t-14.44-27.27q6.67-13.89,14.39-27.27h0l.91-1.57a25,25,0,0,1-5.73-5.28,24.21,24.21,0,0,1-3.84-6.92c-1.3,2.17-2.59,4.36-3.86,6.55q-5,8.64-9.55,17.49c-4.21-10-7.81-19.79-10.75-29.27,7.27-1.63,14.91-3,22.82-4.2a24.68,24.68,0,0,1,.56-3.92c.85-3.73,1.78-7.45,2.74-11.13-10.46,1.38-20.53,3.16-30,5.32q-1.29-5.17-2.32-10.43h0c-6.36-32.49-2.14-57,8.49-63.15,8.37-4.84,24.24-1,42.6,10.83a24.08,24.08,0,0,1,15.45-6.93C178.27,61.11,154,54.37,138.52,63.35c-17.64,10.21-22.86,40.51-15.42,78.43q1.09,5.61,2.49,11.2c-4.33,1.23-8.51,2.54-12.51,3.94C77.27,169.4,54.4,189,54.4,209.27c0,21,24.55,42,61.85,54.73q4.55,1.54,9.14,2.86-1.5,6-2.65,12.08c-7.08,37.26-1.55,66.84,16,77,16.49,9.51,43.15,1.5,70.13-19.48A24.19,24.19,0,0,1,206.11,334.45ZM154.28,226.63q4.59,8.87,9.59,17.5Q169,253,174.49,261.5a307,307,0,0,1-31.18-5C146.3,246.84,150,236.82,154.28,226.63Zm-25,26.33c-2.8-.8-5.59-1.67-8.35-2.61A122.39,122.39,0,0,1,81.48,229.4c-8.39-7.19-12.63-14.32-12.63-20.11,0-12.32,18.37-28,49-38.7q5.76-2,11.63-3.66A347.58,347.58,0,0,0,146,209.65,350.91,350.91,0,0,0,129.28,253Z"/><path id="Path_67" data-name="Path 67" class="cls-1" d="M332.51,156.65h0q-5.4-1.86-10.89-3.44c.6-2.46,1.17-4.94,1.69-7.42,8.24-40,2.85-72.24-15.55-82.85C292.31,54,268.27,61.05,243,80A23.71,23.71,0,0,1,257.3,87.5c18.68-12.6,34.9-16.87,43.24-12,11.32,6.53,15.73,32.88,8.62,67.41q-.71,3.38-1.52,6.73A330.86,330.86,0,0,0,275,143.85q1.29,5.09,2.53,10.16a26.7,26.7,0,0,1,.75,4.86c8.88,1.26,17.41,2.81,25.52,4.68q-4.68,14.82-10.83,29.12-4.69-8.89-9.73-17.6h0q-2.69-4.62-5.46-9.18a23.89,23.89,0,0,1-4.54,9.63,24.73,24.73,0,0,1-4.09,4.09c.54.9,1.06,1.8,1.58,2.7q7.72,13.32,14.58,27.14-6.78,13.94-14.53,27.37h0Q263,250.17,254.5,263c-2.21.16-4.45.3-6.69.42v33.42q7.44-9.39,14.76-20a337.52,337.52,0,0,0,45.81-7.06q1,4.17,1.83,8.18h0a122.1,122.1,0,0,1,1.62,44.64c-2,10.86-6.06,18.1-11.07,21-10.16,5.87-31.32-1.14-54.56-20.11a25.67,25.67,0,0,1-8.56,11.67c27.24,22.06,53.68,30.6,70.37,20.94,18.14-10.5,24-42.28,16.38-80.95-.59-2.94-1.26-5.95-2-9q3.21-1,6.29-2c38.78-12.84,64-33.62,64-54.86C392.64,188.92,369.06,169.22,332.51,156.65ZM272.86,261.24q5.37-8.49,10.38-17.21t9.81-17.92h0a306.14,306.14,0,0,1,11.36,29.75A306.09,306.09,0,0,1,272.86,261.24Zm51.24-10.8h0c-1.85.61-3.75,1.2-5.68,1.77a338.25,338.25,0,0,0-17.13-42.84,339.81,339.81,0,0,0,16.44-42.23q5.19,1.5,10.06,3.17c31.28,10.77,50.39,26.71,50.39,39,0,13.07-20.6,30.06-54.08,41.15Z"/></g><g id="Group_32" data-name="Group 32"><path id="Path_68" data-name="Path 68" class="cls-1" d="M229.9,189.72a17.68,17.68,0,0,0-14-.54c-.13-.22-.27-.33-.25-.42.93-4.57-2.41-7.2-4.54-10.48a7.53,7.53,0,0,0-7.41-3.72c-4.3.2-8.61.05-12.93,0a14.11,14.11,0,0,1-14.1-14.12,13.85,13.85,0,0,1,.3-2.87c2.29-10,5.12-19.88,7.75-29.8,2.27-8.58,4.59-17.15,6.87-25.72A14.06,14.06,0,0,1,206.24,90c11.34-.3,22.69-.17,34,.11a13.64,13.64,0,0,1,12.68,10.39c4.9,18.64,9.89,37.26,14.49,56a14.23,14.23,0,0,1-14.27,18.18c-4.77-.18-9.56-.1-14.33,0a4.51,4.51,0,0,0-2.62,1.29,24,24,0,0,0-2.6,3.26C231.36,182.24,228.07,184.83,229.9,189.72Zm-7.52-26.33h28.26c2.81,0,4.45-1.44,4.48-3.91s-1.63-4-4.56-4H194a4,4,0,1,0-1.28,8,3.88,3.88,0,0,0,1.36,0Z"/><path id="Path_69" data-name="Path 69" class="cls-1" d="M207.26,260.12V206a15.11,15.11,0,1,1,30.2-1.1,10.09,10.09,0,0,1,0,1.1V314.44A15.2,15.2,0,0,1,224.1,329.8a15,15,0,0,1-16.63-12.39,16.84,16.84,0,0,1-.21-3.17Z"/></g></g></svg>